<svg width="113" height="24" viewBox="0 0 113 24" fill="none" xmlns="http://www.w3.org/2000/svg">
<path d="M16.6489 11.7016V16.9892C16.6489 17.6946 16.3687 18.371 15.8699 18.8698C15.3711 19.3686 14.6947 19.6488 13.9893 19.6488H6.01045C5.30508 19.6488 4.62859 19.3686 4.12982 18.8698C3.63104 18.371 3.35083 17.6946 3.35083 16.9892V11.7016L8.00516 5.68584H11.9946L16.6489 11.7016Z" fill="#9282FA" fill-opacity="0.4"/>
<path d="M19.2844 12.0855L17.9197 4.77159C17.8864 4.59331 17.8169 4.42374 17.7156 4.2733C17.6143 4.12286 17.4833 3.99472 17.3306 3.89679C17.1779 3.79886 17.0069 3.73319 16.8278 3.70382C16.6489 3.67446 16.4658 3.68201 16.2898 3.72603L16.2641 3.73351L11.899 5.02093H8.10072L3.73562 3.73767L3.70985 3.73019C3.5339 3.68617 3.35081 3.67861 3.17183 3.70798C2.99285 3.73735 2.82177 3.80302 2.66911 3.90095C2.51645 3.99888 2.38544 4.12701 2.28413 4.27745C2.18282 4.42789 2.11335 4.59746 2.08001 4.77575L0.715295 12.0855C0.656937 12.3783 0.700259 12.6822 0.838083 12.947C0.975914 13.2117 1.20001 13.4216 1.47328 13.5417C1.64829 13.622 1.83844 13.6639 2.03097 13.6647C2.26142 13.6646 2.48761 13.6026 2.6859 13.4852V16.9892C2.6859 17.871 3.03617 18.7165 3.65963 19.34C4.2831 19.9635 5.12871 20.3137 6.01042 20.3137H13.9893C14.871 20.3137 15.7166 19.9635 16.34 19.34C16.9636 18.7165 17.3138 17.871 17.3138 16.9892V13.486C17.5119 13.6032 17.7378 13.6652 17.9679 13.6655C18.1606 13.6649 18.3511 13.6233 18.5264 13.5433C18.8 13.4232 19.0243 13.2131 19.1622 12.9479C19.3 12.6828 19.3432 12.3785 19.2844 12.0855ZM2.021 12.3349L3.38655 5.02093L6.88311 6.04904L2.021 12.3349ZM13.9893 18.9839H10.6648V17.9292L11.8001 16.7947C11.9248 16.67 11.9949 16.5008 11.9949 16.3243C11.9949 16.1478 11.9248 15.9786 11.8001 15.8539C11.6753 15.7291 11.5061 15.6591 11.3297 15.6591C11.1532 15.6591 10.984 15.7291 10.8592 15.8539L9.99985 16.7141L9.14047 15.8539C9.01571 15.7291 8.84649 15.6591 8.67005 15.6591C8.4936 15.6591 8.32438 15.7291 8.19963 15.8539C8.07487 15.9786 8.00473 16.1479 8.00473 16.3243C8.00473 16.5007 8.07487 16.67 8.19963 16.7947L9.33495 17.9292V18.9839H6.01042C5.48139 18.9839 4.97403 18.7737 4.59995 18.3997C4.22587 18.0256 4.01571 17.5182 4.01571 16.9892V11.9285L8.33178 6.35074H11.6679L15.984 11.9285V16.9892C15.984 17.5182 15.7738 18.0256 15.3997 18.3997C15.0257 18.7737 14.5183 18.9839 13.9893 18.9839ZM17.9787 12.3349L13.1166 6.04904L16.6132 5.02093L17.9787 12.3349ZM8.00514 13.3322C8.00514 13.5295 7.94663 13.7223 7.83709 13.8863C7.72746 14.0503 7.57169 14.1782 7.38945 14.2537C7.20721 14.3292 7.00667 14.3489 6.8132 14.3104C6.61974 14.2719 6.44203 14.1769 6.30254 14.0374C6.16306 13.898 6.06807 13.7203 6.02959 13.5268C5.99111 13.3333 6.01085 13.1328 6.08634 12.9506C6.16183 12.7683 6.28967 12.6126 6.45368 12.5029C6.6177 12.3934 6.81052 12.3349 7.00778 12.3349C7.27229 12.3349 7.52598 12.4399 7.713 12.627C7.90009 12.814 8.00514 13.0677 8.00514 13.3322ZM13.9893 13.3322C13.9893 13.5295 13.9308 13.7223 13.8212 13.8863C13.7116 14.0503 13.5558 14.1782 13.3736 14.2537C13.1913 14.3292 12.9908 14.3489 12.7974 14.3104C12.6039 14.2719 12.4262 14.1769 12.2867 14.0374C12.1472 13.898 12.0522 13.7203 12.0137 13.5268C11.9752 13.3333 11.995 13.1328 12.0705 12.9506C12.146 12.7683 12.2738 12.6126 12.4378 12.5029C12.6018 12.3934 12.7947 12.3349 12.9919 12.3349C13.2565 12.3349 13.5101 12.4399 13.6971 12.627C13.8842 12.814 13.9893 13.0677 13.9893 13.3322Z" fill="#9282FA"/>
<path d="M25.0133 18V7.6H28.96L30.8933 16.24H31.3733L33.3067 7.6H37.2533V18H35.1733V9.44H34.8267L32.9333 18H29.2267L27.3333 9.44H26.9867V18H25.0133ZM43.599 18.2C42.0967 18.2 40.9767 17.8133 40.239 17.04C39.5101 16.2578 39.1456 15.1422 39.1456 13.6933V7.6H41.4123V13.6267C41.4123 14.48 41.5723 15.1467 41.8923 15.6267C42.2212 16.1067 42.799 16.3467 43.6256 16.3467C44.4612 16.3467 45.039 16.1067 45.359 15.6267C45.679 15.1467 45.839 14.48 45.839 13.6267V7.6H48.0523V13.6933C48.0523 15.1422 47.6878 16.2578 46.959 17.04C46.2301 17.8133 45.1101 18.2 43.599 18.2ZM49.9508 18V7.6H53.8175L57.0442 16.24H57.3642V7.6H59.3908V18H55.4975L52.2842 9.36H51.9775V18H49.9508ZM61.4196 18V7.6H65.1263C66.9751 7.6 68.3174 8.05778 69.1529 8.97333C69.9885 9.88 70.4062 11.1556 70.4062 12.8C70.4062 14.4444 69.9885 15.7244 69.1529 16.64C68.3174 17.5467 66.9751 18 65.1263 18H61.4196ZM63.6596 16.2667H64.9929C65.6774 16.2667 66.2463 16.1644 66.6996 15.96C67.1618 15.7467 67.5085 15.3911 67.7396 14.8933C67.9707 14.3867 68.0863 13.6889 68.0863 12.8C68.0863 11.9111 67.9707 11.2178 67.7396 10.72C67.5085 10.2133 67.1618 9.85778 66.6996 9.65333C66.2463 9.44 65.6774 9.33333 64.9929 9.33333H63.6596V16.2667ZM76.1458 18.1867C75.0436 18.1867 74.1236 17.9689 73.3858 17.5333C72.6569 17.0889 72.1103 16.4622 71.7458 15.6533C71.3903 14.8444 71.2125 13.8933 71.2125 12.8C71.2125 11.6978 71.3903 10.7467 71.7458 9.94667C72.1103 9.13778 72.6569 8.51556 73.3858 8.08C74.1236 7.63556 75.0436 7.41333 76.1458 7.41333C77.2569 7.41333 78.1769 7.63556 78.9058 8.08C79.6347 8.51556 80.1769 9.13778 80.5325 9.94667C80.8969 10.7467 81.0792 11.6978 81.0792 12.8C81.0792 13.8933 80.8969 14.8444 80.5325 15.6533C80.1769 16.4622 79.6347 17.0889 78.9058 17.5333C78.1769 17.9689 77.2569 18.1867 76.1458 18.1867ZM76.1458 16.5067C77.0436 16.5067 77.7014 16.1867 78.1192 15.5467C78.5458 14.8978 78.7592 13.9822 78.7592 12.8C78.7592 11.6089 78.5458 10.6933 78.1192 10.0533C77.7014 9.41333 77.0436 9.09333 76.1458 9.09333C75.2481 9.09333 74.5858 9.41333 74.1592 10.0533C73.7414 10.6933 73.5325 11.6089 73.5325 12.8C73.5325 13.9822 73.7414 14.8978 74.1592 15.5467C74.5858 16.1867 75.2481 16.5067 76.1458 16.5067ZM85.7008 18V7.6H90.0475C91.3808 7.6 92.3542 7.88444 92.9675 8.45333C93.5808 9.01333 93.8875 9.76889 93.8875 10.72C93.8875 11.6711 93.5808 12.4311 92.9675 13C92.3631 13.5689 91.3897 13.8533 90.0475 13.8533H87.9142V18H85.7008ZM87.9142 12.1733H89.7142C90.3186 12.1733 90.7897 12.0711 91.1275 11.8667C91.4742 11.6533 91.6475 11.2756 91.6475 10.7333C91.6475 10.2 91.4742 9.82667 91.1275 9.61333C90.7897 9.39111 90.3186 9.28 89.7142 9.28H87.9142V12.1733ZM95.2946 18V7.6H102.388V9.36H97.5079V11.6533H101.268V13.28H97.5079V16.24H102.468V18H95.2946ZM106.558 18V9.36H103.478V7.6H111.878V9.36H108.798V18H106.558Z" fill="#9282FA"/>
</svg>
